<?xml version="1.0" encoding="UTF-8" standalone="no"?>
<!DOCTYPE svg PUBLIC "-//W3C//DTD SVG 1.1//EN"
 "http://www.w3.org/Graphics/SVG/1.1/DTD/svg11.dtd">
<!-- Generated by graphviz version 2.43.0 (0)
 -->
<!-- Title: classes Pages: 1 -->
<svg width="442pt" height="123pt"
 viewBox="0.00 0.00 441.50 123.00" xmlns="http://www.w3.org/2000/svg" xmlns:xlink="http://www.w3.org/1999/xlink">
<g id="graph0" class="graph" transform="scale(1 1) rotate(0) translate(4 119)">
<title>classes</title>
<polygon fill="white" stroke="transparent" points="-4,4 -4,-119 437.5,-119 437.5,4 -4,4"/>
<!-- cz_legacy.cz_legacy._LegacyCz -->
<g id="node1" class="node">
<title>cz_legacy.cz_legacy._LegacyCz</title>
<polygon fill="none" stroke="black" points="0,-0.5 0,-114.5 183,-114.5 183,-0.5 0,-0.5"/>
<text text-anchor="start" x="53.5" y="-99.3" font-family="Times,serif" font-size="14.00">_LegacyCz</text>
<polyline fill="none" stroke="black" points="0,-91.5 183,-91.5 "/>
<text text-anchor="start" x="8" y="-76.3" font-family="Times,serif" font-size="14.00">bump_pattern : str</text>
<text text-anchor="start" x="8" y="-61.3" font-family="Times,serif" font-size="14.00">change_type_map</text>
<text text-anchor="start" x="8" y="-46.3" font-family="Times,serif" font-size="14.00">changelog_pattern : str</text>
<text text-anchor="start" x="8" y="-31.3" font-family="Times,serif" font-size="14.00">commit_parser : str</text>
<polyline fill="none" stroke="black" points="0,-23.5 183,-23.5 "/>
<text text-anchor="start" x="89" y="-8.3" font-family="Times,serif" font-size="14.00"> </text>
</g>
<!-- cz_legacy._RuntimeTypeCheckingModes -->
<g id="node2" class="node">
<title>cz_legacy._RuntimeTypeCheckingModes</title>
<polygon fill="none" stroke="black" points="201.5,-23 201.5,-92 433.5,-92 433.5,-23 201.5,-23"/>
<text text-anchor="start" x="209.5" y="-76.8" font-family="Times,serif" font-size="14.00">_RuntimeTypeCheckingModes</text>
<polyline fill="none" stroke="black" points="201.5,-69 433.5,-69 "/>
<text text-anchor="start" x="297.5" y="-53.8" font-family="Times,serif" font-size="14.00">name</text>
<polyline fill="none" stroke="black" points="201.5,-46 433.5,-46 "/>
<text text-anchor="start" x="228" y="-30.8" font-family="Times,serif" font-size="14.00">from_environment(): Self</text>
</g>
</g>
</svg>
