<?xml version="1.0" encoding="UTF-8" standalone="no"?>
<!DOCTYPE svg PUBLIC "-//W3C//DTD SVG 1.1//EN"
 "http://www.w3.org/Graphics/SVG/1.1/DTD/svg11.dtd">
<!-- Generated by graphviz version 10.0.1 (20240210.2158)
 -->
<!-- Title: classes Pages: 1 -->
<svg width="354pt" height="132pt"
 viewBox="0.00 0.00 353.75 132.00" xmlns="http://www.w3.org/2000/svg" xmlns:xlink="http://www.w3.org/1999/xlink">
<g id="graph0" class="graph" transform="scale(1 1) rotate(0) translate(4 128)">
<title>classes</title>
<polygon fill="white" stroke="none" points="-4,4 -4,-128 349.75,-128 349.75,4 -4,4"/>
<!-- cz_legacy.cz_legacy._LegacyCz -->
<g id="node1" class="node">
<title>cz_legacy.cz_legacy._LegacyCz</title>
<polygon fill="none" stroke="black" points="0,-0.5 0,-123.5 140.5,-123.5 140.5,-0.5 0,-0.5"/>
<text text-anchor="start" x="39.5" y="-106.2" font-family="Times,serif" font-size="14.00">_LegacyCz</text>
<polyline fill="none" stroke="black" points="0,-99 140.5,-99"/>
<text text-anchor="start" x="8" y="-81.7" font-family="Times,serif" font-size="14.00">bump_pattern : str</text>
<text text-anchor="start" x="8" y="-65.2" font-family="Times,serif" font-size="14.00">change_type_map</text>
<text text-anchor="start" x="8" y="-48.7" font-family="Times,serif" font-size="14.00">changelog_pattern : str</text>
<text text-anchor="start" x="8" y="-32.2" font-family="Times,serif" font-size="14.00">commit_parser : str</text>
<polyline fill="none" stroke="black" points="0,-25 140.5,-25"/>
<text text-anchor="start" x="68.38" y="-7.7" font-family="Times,serif" font-size="14.00"> </text>
</g>
<!-- cz_legacy._RuntimeTypeCheckingModes -->
<g id="node2" class="node">
<title>cz_legacy._RuntimeTypeCheckingModes</title>
<polygon fill="none" stroke="black" points="158.75,-25.25 158.75,-98.75 345.75,-98.75 345.75,-25.25 158.75,-25.25"/>
<text text-anchor="start" x="166.75" y="-81.45" font-family="Times,serif" font-size="14.00">_RuntimeTypeCheckingModes</text>
<polyline fill="none" stroke="black" points="158.75,-74.25 345.75,-74.25"/>
<text text-anchor="start" x="237.25" y="-56.95" font-family="Times,serif" font-size="14.00">name</text>
<polyline fill="none" stroke="black" points="158.75,-49.75 345.75,-49.75"/>
<text text-anchor="start" x="181.75" y="-32.45" font-family="Times,serif" font-size="14.00">from_environment(): Self</text>
</g>
</g>
</svg>
