<?xml version="1.0" encoding="UTF-8" standalone="no"?>
<!DOCTYPE svg PUBLIC "-//W3C//DTD SVG 1.1//EN"
 "http://www.w3.org/Graphics/SVG/1.1/DTD/svg11.dtd">
<!-- Generated by graphviz version 11.0.0 (20240428.1522)
 -->
<!-- Title: packages Pages: 1 -->
<svg width="302pt" height="116pt"
 viewBox="0.00 0.00 301.50 116.00" xmlns="http://www.w3.org/2000/svg" xmlns:xlink="http://www.w3.org/1999/xlink">
<g id="graph0" class="graph" transform="scale(1 1) rotate(0) translate(4 112)">
<title>packages</title>
<polygon fill="white" stroke="none" points="-4,4 -4,-112 297.5,-112 297.5,4 -4,4"/>
<!-- cz_legacy -->
<g id="node1" class="node">
<title>cz_legacy</title>
<polygon fill="none" stroke="black" points="148,-36 78,-36 78,0 148,0 148,-36"/>
<text text-anchor="middle" x="113" y="-12.95" font-family="Times,serif" font-size="14.00">cz_legacy</text>
</g>
<!-- cz_legacy._runtime_type_check_setup -->
<g id="node2" class="node">
<title>cz_legacy._runtime_type_check_setup</title>
<polygon fill="none" stroke="black" points="226,-108 0,-108 0,-72 226,-72 226,-108"/>
<text text-anchor="middle" x="113" y="-84.95" font-family="Times,serif" font-size="14.00">cz_legacy._runtime_type_check_setup</text>
</g>
<!-- cz_legacy&#45;&gt;cz_legacy._runtime_type_check_setup -->
<g id="edge1" class="edge">
<title>cz_legacy&#45;&gt;cz_legacy._runtime_type_check_setup</title>
<path fill="none" stroke="black" d="M113,-36.3C113,-43.68 113,-52.48 113,-60.75"/>
<polygon fill="black" stroke="black" points="113,-70.68 108.5,-60.68 113,-66.9 113,-60.68 113,-60.68 113,-60.68 113,-66.9 117.5,-60.68 113,-70.68"/>
</g>
<!-- cz_legacy.cz_legacy -->
<g id="node3" class="node">
<title>cz_legacy.cz_legacy</title>
<polygon fill="none" stroke="black" points="293.5,-36 166.5,-36 166.5,0 293.5,0 293.5,-36"/>
<text text-anchor="middle" x="230" y="-12.95" font-family="Times,serif" font-size="14.00">cz_legacy.cz_legacy</text>
</g>
</g>
</svg>
