<?xml version="1.0" encoding="UTF-8" standalone="no"?>
<!DOCTYPE svg PUBLIC "-//W3C//DTD SVG 1.1//EN"
 "http://www.w3.org/Graphics/SVG/1.1/DTD/svg11.dtd">
<!-- Generated by graphviz version 2.43.0 (0)
 -->
<!-- Title: packages Pages: 1 -->
<svg width="282pt" height="44pt"
 viewBox="0.00 0.00 282.00 44.00" xmlns="http://www.w3.org/2000/svg" xmlns:xlink="http://www.w3.org/1999/xlink">
<g id="graph0" class="graph" transform="scale(1 1) rotate(0) translate(4 40)">
<title>packages</title>
<polygon fill="white" stroke="transparent" points="-4,4 -4,-40 278,-40 278,4 -4,4"/>
<!-- cz_legacy -->
<g id="node1" class="node">
<title>cz_legacy</title>
<polygon fill="none" stroke="black" points="84,-36 0,-36 0,0 84,0 84,-36"/>
<text text-anchor="middle" x="42" y="-14.3" font-family="Times,serif" font-size="14.00">cz_legacy</text>
</g>
<!-- cz_legacy&#45;&gt;cz_legacy -->
<g id="edge1" class="edge">
<title>cz_legacy&#45;&gt;cz_legacy</title>
<path fill="none" stroke="black" d="M84.06,-11.36C94.34,-11.85 102,-14.06 102,-18 102,-20.46 99.01,-22.25 94.25,-23.36"/>
<polygon fill="black" stroke="black" points="84.06,-24.64 93.42,-18.93 89.02,-24.02 93.98,-23.4 93.98,-23.4 93.98,-23.4 89.02,-24.02 94.54,-27.86 84.06,-24.64 84.06,-24.64"/>
</g>
<!-- cz_legacy.cz_legacy -->
<g id="node2" class="node">
<title>cz_legacy.cz_legacy</title>
<polygon fill="none" stroke="black" points="274,-36 120,-36 120,0 274,0 274,-36"/>
<text text-anchor="middle" x="197" y="-14.3" font-family="Times,serif" font-size="14.00">cz_legacy.cz_legacy</text>
</g>
</g>
</svg>
