<?xml version="1.0" encoding="UTF-8" standalone="no"?>
<!DOCTYPE svg PUBLIC "-//W3C//DTD SVG 1.1//EN"
 "http://www.w3.org/Graphics/SVG/1.1/DTD/svg11.dtd">
<!-- Generated by graphviz version 2.50.0 (20211204.2007)
 -->
<!-- Title: packages Pages: 1 -->
<svg width="244pt" height="44pt"
 viewBox="0.00 0.00 243.50 44.00" xmlns="http://www.w3.org/2000/svg" xmlns:xlink="http://www.w3.org/1999/xlink">
<g id="graph0" class="graph" transform="scale(1 1) rotate(0) translate(4 40)">
<title>packages</title>
<polygon fill="white" stroke="transparent" points="-4,4 -4,-40 239.5,-40 239.5,4 -4,4"/>
<!-- cz_legacy -->
<g id="node1" class="node">
<title>cz_legacy</title>
<polygon fill="none" stroke="black" points="71,-36 0,-36 0,0 71,0 71,-36"/>
<text text-anchor="middle" x="35.5" y="-14.3" font-family="Times,serif" font-size="14.00">cz_legacy</text>
</g>
<!-- cz_legacy&#45;&gt;cz_legacy -->
<g id="edge1" class="edge">
<title>cz_legacy&#45;&gt;cz_legacy</title>
<path fill="none" stroke="black" d="M71.25,-11.28C81.29,-11.58 89,-13.82 89,-18 89,-20.61 85.99,-22.47 81.28,-23.57"/>
<polygon fill="black" stroke="black" points="71.25,-24.72 80.67,-19.11 76.22,-24.15 81.19,-23.58 81.19,-23.58 81.19,-23.58 76.22,-24.15 81.7,-28.05 71.25,-24.72 71.25,-24.72"/>
</g>
<!-- cz_legacy.cz_legacy -->
<g id="node2" class="node">
<title>cz_legacy.cz_legacy</title>
<polygon fill="none" stroke="black" points="235.5,-36 107.5,-36 107.5,0 235.5,0 235.5,-36"/>
<text text-anchor="middle" x="171.5" y="-14.3" font-family="Times,serif" font-size="14.00">cz_legacy.cz_legacy</text>
</g>
</g>
</svg>
