<?xml version="1.0" encoding="UTF-8" standalone="no"?>
<!DOCTYPE svg PUBLIC "-//W3C//DTD SVG 1.1//EN"
 "http://www.w3.org/Graphics/SVG/1.1/DTD/svg11.dtd">
<!-- Generated by graphviz version 2.43.0 (0)
 -->
<!-- Title: packages Pages: 1 -->
<svg width="363pt" height="116pt"
 viewBox="0.00 0.00 363.00 116.00" xmlns="http://www.w3.org/2000/svg" xmlns:xlink="http://www.w3.org/1999/xlink">
<g id="graph0" class="graph" transform="scale(1 1) rotate(0) translate(4 112)">
<title>packages</title>
<polygon fill="white" stroke="transparent" points="-4,4 -4,-112 359,-112 359,4 -4,4"/>
<!-- cz_legacy -->
<g id="node1" class="node">
<title>cz_legacy</title>
<polygon fill="none" stroke="black" points="183,-36 99,-36 99,0 183,0 183,-36"/>
<text text-anchor="middle" x="141" y="-14.3" font-family="Times,serif" font-size="14.00">cz_legacy</text>
</g>
<!-- cz_legacy._runtime_type_check_setup -->
<g id="node2" class="node">
<title>cz_legacy._runtime_type_check_setup</title>
<polygon fill="none" stroke="black" points="282,-108 0,-108 0,-72 282,-72 282,-108"/>
<text text-anchor="middle" x="141" y="-86.3" font-family="Times,serif" font-size="14.00">cz_legacy._runtime_type_check_setup</text>
</g>
<!-- cz_legacy&#45;&gt;cz_legacy._runtime_type_check_setup -->
<g id="edge1" class="edge">
<title>cz_legacy&#45;&gt;cz_legacy._runtime_type_check_setup</title>
<path fill="none" stroke="black" d="M141,-36.3C141,-44.02 141,-53.29 141,-61.89"/>
<polygon fill="black" stroke="black" points="141,-71.9 136.5,-61.9 141,-66.9 141,-61.9 141,-61.9 141,-61.9 141,-66.9 145.5,-61.9 141,-71.9 141,-71.9"/>
</g>
<!-- cz_legacy.cz_legacy -->
<g id="node3" class="node">
<title>cz_legacy.cz_legacy</title>
<polygon fill="none" stroke="black" points="355,-36 201,-36 201,0 355,0 355,-36"/>
<text text-anchor="middle" x="278" y="-14.3" font-family="Times,serif" font-size="14.00">cz_legacy.cz_legacy</text>
</g>
</g>
</svg>
